#!OML:ASF E:\Mandelcareful walks\Project 1\Capture day 1\Session 1\Subject1.ASF
:FULLY-SPECIFIED
:DEGREES
495
root -21.6482 9.94388 2.93064 549.794 63.4879 523.323
lowerback 49.795 -1.40236 -6.16913
upperback 10.2509 -2.2701 -1.60822
thorax -8.82467 0.0579375 1.93477
lowerneck -35.9002 -1.38998 -7.36791
upperneck 16.4571 3.27265 -4.71249
head 11.0728 0.388871 -0.00397357
rclavicle -2.66371e-014 1.33186e-014
rhumerus 39.995 11.9674 -86.2982
rradius 19.6161
rwrist -17.1847
rhand -34.4103 -55.4507
rfingers 7.12502
rthumb -7.57561 -85.295
lclavicle -2.66371e-014 1.33186e-014
lhumerus 30.2629 -12.6879 12.5079
lradius 46.9797
lwrist 22.6224
lhand -13.7271 352.895
lfingers 7.12502
lthumb 12.3922 22.5072
rfemur -99.7588 -63.9495 19.0464
rtibia 127.341
rfoot -29.2247 9.76482
rtoes -30.0306
lfemur -103.037 30.7457 -22.3949
ltibia 107.576
lfoot -18.7651 -8.88318
ltoes -18.7983
496
root -21.6787 9.95109 3.07905 549.176 63.0061 522.814
lowerback 49.9258 -1.34604 -6.11548
upperback 10.2728 -2.16133 -1.70713
thorax -8.83052 0.126416 1.75228
lowerneck -36.1684 -1.48666 -7.85377
upperneck 16.5918 3.38307 -4.51792
head 11.1539 0.425357 0.162965
rclavicle -1.99779e-014 9.67833e-014
rhumerus 40.261 11.5487 -86.3456
rradius 19.6805
rwrist -17.1796
rhand -33.7397 -57.285
rfingers 7.12502
rthumb -6.92832 -87.1516
lclavicle -1.99779e-014 9.67833e-014
lhumerus 31.0457 -12.9921 11.8759
lradius 47.4336
lwrist 22.6047
lhand -13.9645 352.073
lfingers 7.12502
lthumb 12.1633 21.6997
rfemur -100.688 -64.1775 20.1409
rtibia 127.736
rfoot -29.5966 9.83511
rtoes -29.2191
lfemur -102.957 30.3802 -22.2176
ltibia 106.698
lfoot -17.9218 -8.75626
ltoes -19.1461
497
root -21.7051 9.95274 3.22812 548.259 62.5451 521.972
lowerback 50.0063 -1.33286 -6.14748
upperback 10.2841 -2.16496 -1.96836
thorax -8.83664 0.152635 1.48125
lowerneck -36.3113 -1.41883 -8.03481
upperneck 16.5771 3.58057 -4.48673
head 11.1648 0.508104 0.239521
rclavicle 2.33572e-015 2.30963e-014
rhumerus 40.3978 10.8363 -86.8785
rradius 19.8549
rwrist -16.7664
rhand -33.5277 -57.8668
rfingers 7.12502
rthumb -6.72368 -87.74
lclavicle 2.33572e-015 2.30963e-014
lhumerus 31.8783 -13.2654 11.2596
lradius 47.7997
lwrist 22.3575
lhand -13.9397 351.516
lfingers 7.12502
lthumb 12.1872 21.1405
rfemur -101.739 -64.4022 21.1394
rtibia 128.134
rfoot -29.9208 9.7713
rtoes -29.517
lfemur -102.907 30.0312 -22.3566
ltibia 105.793
lfoot -17.2165 -8.38687
ltoes -20.7368
498
root -21.7313 9.95226 3.37312 547.177 61.9728 520.972
lowerback 50.1131 -1.39427 -6.22246
upperback 10.2711 -2.27757 -2.20744
thorax -8.86633 0.131045 1.29938
lowerneck -36.1 -1.11303 -7.747
upperneck 16.2913 3.92649 -4.91622
head 11.0383 0.646541 0.101433
rclavicle -5.84241e-015 -2.2569e-014
rhumerus 40.426 10.4113 -87.3132
rradius 20.0462
rwrist -16.3831
rhand -33.8559 -56.693
rfingers 7.12502
rthumb -7.04051 -86.5559
lclavicle -5.84241e-015 -2.2569e-014
lhumerus 32.392 -13.4256 11.0074
lradius 48.2768
lwrist 21.9542
lhand -14.1308 350.836
lfingers 7.12502
lthumb 12.003 20.4715
rfemur -102.708 -64.7935 21.9265
rtibia 128.55
rfoot -30.331 9.80055
rtoes -30.5593
lfemur -102.591 29.5209 -22.4934
ltibia 104.795
lfoot -16.4385 -8.16821
ltoes -21.6599
499
root -21.7585 9.95293 3.51594 546.393 61.3085 520.234
lowerback 50.1794 -1.49778 -6.19173
upperback 10.2634 -2.37608 -2.34904
thorax -8.88897 0.10901 1.16991
lowerneck -35.621 -0.732277 -7.26922
upperneck 15.8207 4.2989 -5.58382
head 10.8164 0.794329 -0.147415
rclavicle -2.45996e-014 3.60297e-014
rhumerus 40.5912 10.4396 -87.137
rradius 20.1416
rwrist -16.4435
rhand -32.7527 -58.1423
rfingers 7.12502
rthumb -5.97545 -88.0381
lclavicle -2.45996e-014 3.60297e-014
lhumerus 32.7928 -13.4965 10.9644
lradius 48.8111
lwrist 21.6373
lhand -14.2642 349.639
lfingers 7.12502
lthumb 11.8744 19.2825
rfemur -103.753 -65.2467 22.9552
rtibia 128.968
rfoot -30.86 9.84138
rtoes -30.7876
lfemur -102.244 28.9276 -22.3612
ltibia 103.793
lfoot -15.4136 -8.36619
ltoes -20.6855
